# xmcd
#
# Track frame offsets:
#	150
#	14857
#	31587
#	48992
#	61285
#	75000
#	88222
#	109427
#	125240
#	138195
#	149327
#	162522
#	175892
#	191607
#	205707
#	219825
#	234937
#
# Disc length: 3346 seconds
#
# Revision: 2
# Processed by: cddbd v1.5.1PL0 Copyright (c) Steve Scherf et al.
# Submitted via: EasyCDDAExtractor 7.0.4.1
#
DISCID=e90d1011
DTITLE=Tayer - Rio Grande - Rio Bravo
DYEAR=2000
DGENRE=Folklore
TTITLE0=La Mosca
TTITLE1=Vamos a Bailar
TTITLE2=Las Gaviotas
TTITLE3=El Colúmpico
TTITLE4=Clavelio chino chino
TTITLE5=Un mojado sin licencia
TTITLE6=El Chubasco
TTITLE7=Las Bicicletas
TTITLE8=El Pávido Návido
TTITLE9=Santos Valdéz
TTITLE10=Erre con erre
TTITLE11=La Norteña
TTITLE12=Varsoviana
TTITLE13=Bellos recuerdos
TTITLE14=Las pochas de California
TTITLE15=El marrano gordo
TTITLE16=Contrabando y traición
EXTD=
EXTT0=
EXTT1=
EXTT2=
EXTT3=
EXTT4=
EXTT5=
EXTT6=
EXTT7=
EXTT8=
EXTT9=
EXTT10=
EXTT11=
EXTT12=
EXTT13=
EXTT14=
EXTT15=
EXTT16=
PLAYORDER=
